<svg width="22" height="22" viewBox="0 0 22 22" fill="none" xmlns="http://www.w3.org/2000/svg">
<path d="M1 11L3.22222 8.77778M3.22222 8.77778L11 1L18.7778 8.77778M3.22222 8.77778V19.8889C3.22222 20.1836 3.33929 20.4662 3.54766 20.6746C3.75603 20.8829 4.03865 21 4.33333 21H7.66667M18.7778 8.77778L21 11M18.7778 8.77778V19.8889C18.7778 20.1836 18.6607 20.4662 18.4523 20.6746C18.244 20.8829 17.9614 21 17.6667 21H14.3333M7.66667 21C7.96135 21 8.24397 20.8829 8.45234 20.6746C8.66071 20.4662 8.77778 20.1836 8.77778 19.8889V15.4444C8.77778 15.1498 8.89484 14.8671 9.10322 14.6588C9.31159 14.4504 9.5942 14.3333 9.88889 14.3333H12.1111C12.4058 14.3333 12.6884 14.4504 12.8968 14.6588C13.1052 14.8671 13.2222 15.1498 13.2222 15.4444V19.8889C13.2222 20.1836 13.3393 20.4662 13.5477 20.6746C13.756 20.8829 14.0386 21 14.3333 21M7.66667 21H14.3333" stroke="white" stroke-width="2" stroke-linecap="round" stroke-linejoin="round"/>
</svg>
