<svg width="22" height="22" viewBox="0 0 22 22" fill="none" xmlns="http://www.w3.org/2000/svg">
<path d="M1 18.7268V8.57693C0.999945 8.20278 1.09017 7.8344 1.26268 7.50447C1.43518 7.17455 1.68463 6.89328 1.98889 6.68563L9.76667 1.38224C10.1318 1.13301 10.561 1 11 1C11.439 1 11.8682 1.13301 12.2333 1.38224L20.0111 6.68563C20.3154 6.89328 20.5648 7.17455 20.7373 7.50447C20.9098 7.8344 21.0001 8.20278 21 8.57693V18.7268M1 18.7268C1 19.3297 1.23413 19.9079 1.65087 20.3342C2.06762 20.7605 2.63285 21 3.22222 21H18.7778C19.3671 21 19.9324 20.7605 20.3491 20.3342C20.7659 19.9079 21 19.3297 21 18.7268M1 18.7268L8.5 13.6121M21 18.7268L13.5 13.6121M8.5 13.6121L1 8.49737M8.5 13.6121L9.76667 14.4759C10.1318 14.7251 10.561 14.8581 11 14.8581C11.439 14.8581 11.8682 14.7251 12.2333 14.4759L13.5 13.6121M13.5 13.6121L21 8.49737" stroke="white" stroke-width="2" stroke-linecap="round" stroke-linejoin="round"/>
</svg>
