<svg width="22" height="22" viewBox="0 0 22 22" fill="none" xmlns="http://www.w3.org/2000/svg">
<path d="M1 16L6.7325 10.2675C7.20132 9.79882 7.83709 9.53553 8.5 9.53553C9.16291 9.53553 9.79868 9.79882 10.2675 10.2675L16 16M13.5 13.5L15.4825 11.5175C15.9513 11.0488 16.5871 10.7855 17.25 10.7855C17.9129 10.7855 18.5487 11.0488 19.0175 11.5175L21 13.5M13.5 6H13.5125M3.5 21H18.5C19.163 21 19.7989 20.7366 20.2678 20.2678C20.7366 19.7989 21 19.163 21 18.5V3.5C21 2.83696 20.7366 2.20107 20.2678 1.73223C19.7989 1.26339 19.163 1 18.5 1H3.5C2.83696 1 2.20107 1.26339 1.73223 1.73223C1.26339 2.20107 1 2.83696 1 3.5V18.5C1 19.163 1.26339 19.7989 1.73223 20.2678C2.20107 20.7366 2.83696 21 3.5 21Z" stroke="white" stroke-width="2" stroke-linecap="round" stroke-linejoin="round"/>
</svg>
